<?xml version="1.0" encoding="utf-8"?>
<!-- Generator: Adobe Illustrator 24.1.2, SVG Export Plug-In . SVG Version: 6.00 Build 0)  -->
<svg version="1.1" id="Layer_1" xmlns="http://www.w3.org/2000/svg" xmlns:xlink="http://www.w3.org/1999/xlink" x="0px" y="0px"
	 viewBox="0 0 100 100" style="enable-background:new 0 0 100 100;" xml:space="preserve">
<style type="text/css">
	.st0{fill:none;}
	.st1{fill:#FF5500;}
</style>
<g>
	<path class="st0" d="M85.2,12.1H14.9C10,12.1,6,16.1,6,21c0,0,0,0,0,0v39.1C6,65,9.9,69,14.8,69c0,0,0,0,0,0H26v16.4l16.1-14.9
		l1.7-1.6h41.3c4.9,0,8.9-4,8.9-8.9c0,0,0,0,0,0V21C94,16.1,90,12.1,85.2,12.1L85.2,12.1z M29.7,47.2c-3.2,0-5.8-2.5-5.8-5.7
		c0-3.2,2.5-5.8,5.7-5.8s5.8,2.5,5.8,5.7c0,0,0,0.1,0,0.1C35.4,44.7,32.9,47.2,29.7,47.2z M49.9,47.2c-3.2,0-5.7-2.6-5.7-5.8
		s2.6-5.7,5.8-5.7c3.2,0,5.7,2.6,5.7,5.8C55.7,44.6,53.1,47.2,49.9,47.2z M70.3,47.2c-3.2,0-5.8-2.5-5.8-5.7c0-3.2,2.5-5.8,5.7-5.8
		c3.2,0,5.8,2.5,5.8,5.7C76,44.6,73.5,47.2,70.3,47.2C70.3,47.2,70.3,47.2,70.3,47.2z"/>
	<path class="st1" d="M85.2,6.1H14.9C6.6,6.1,0,12.7,0,20.9c0,0,0,0,0,0v39.1C0,68.3,6.6,75,14.8,75c0,0,0,0,0,0H20v13
		c0,3.8,1.4,5.9,3.6,5.9c1.3,0,2.9-0.8,4.6-2.3L46.2,75h39c8.2,0,14.8-6.7,14.8-14.9c0,0,0,0,0,0V21C100,12.8,93.4,6.1,85.2,6.1
		C85.2,6.1,85.2,6.1,85.2,6.1z M94,60.1c0,4.9-4,8.9-8.8,8.9h0H43.8l-1.7,1.6L26,85.4V69H14.9C10,69,6,65,6,60.1c0,0,0,0,0,0V21
		c0-4.9,4-8.8,8.9-8.9h70.3c4.9,0,8.8,4,8.8,8.9V60.1L94,60.1z"/>
	<path class="st1" d="M50,35.7c-3.2,0-5.8,2.6-5.8,5.7c0,3.2,2.6,5.8,5.7,5.8c3.2,0,5.8-2.5,5.8-5.7C55.7,38.3,53.2,35.7,50,35.7z"
		/>
	<path class="st1" d="M29.8,35.7c-3.2,0-5.8,2.5-5.8,5.7c0,3.2,2.5,5.8,5.7,5.8c3.2,0,5.8-2.5,5.8-5.7c0,0,0,0,0,0
		C35.5,38.3,33,35.7,29.8,35.7C29.8,35.7,29.8,35.7,29.8,35.7z"/>
	<path class="st1" d="M70.3,35.7c-3.2,0-5.8,2.5-5.8,5.7c0,3.2,2.5,5.8,5.7,5.8s5.8-2.5,5.8-5.7c0,0,0-0.1,0-0.1
		C76,38.3,73.5,35.7,70.3,35.7z"/>
</g>
</svg>
