<?xml version="1.0" encoding="utf-8"?>
<!-- Generator: Adobe Illustrator 24.1.2, SVG Export Plug-In . SVG Version: 6.00 Build 0)  -->
<svg version="1.1" id="Layer_1" xmlns="http://www.w3.org/2000/svg" xmlns:xlink="http://www.w3.org/1999/xlink" x="0px" y="0px"
	 viewBox="0 0 50 50" style="enable-background:new 0 0 50 50;" xml:space="preserve">
<g>
	<path d="M12.4,43.8c3.5,3.5,8,5.2,12.6,5.2s9.1-1.7,12.6-5.2c2.9-2.9,4.7-6.7,5.1-10.8c0.4-4.1-0.6-8.2-2.8-11.6c0,0,0,0,0,0
		L26,1.5C25.8,1.2,25.4,1,25,1c-0.4,0-0.8,0.2-1,0.5L10.2,21.4c0,0,0,0,0,0C7.9,24.8,6.9,29,7.3,33C7.7,37.1,9.5,40.9,12.4,43.8z
		 M12.2,22.8L25,4.5l12.8,18.4c1.9,2.9,2.8,6.4,2.4,9.9c-0.4,3.5-1.9,6.8-4.4,9.3l0,0c-6,6-15.6,6-21.6,0c-2.5-2.5-4-5.8-4.4-9.3
		C9.5,29.3,10.3,25.8,12.2,22.8z"/>
	<path d="M30,41c0.3,0,0.5-0.1,0.7-0.3c1.8-1.4,3.3-3,4.5-5c0.4-0.6,0.2-1.4-0.4-1.7c-0.6-0.4-1.4-0.2-1.7,0.4
		c-1,1.7-2.3,3.1-3.8,4.2c-0.6,0.4-0.7,1.2-0.3,1.8C29.2,40.9,29.6,41,30,41z"/>
</g>
</svg>
