<?xml version="1.0" encoding="utf-8"?>
<!-- Generator: Adobe Illustrator 24.1.2, SVG Export Plug-In . SVG Version: 6.00 Build 0)  -->
<svg version="1.1" id="Layer_1" xmlns="http://www.w3.org/2000/svg" xmlns:xlink="http://www.w3.org/1999/xlink" x="0px" y="0px"
	 viewBox="0 0 50 50" style="enable-background:new 0 0 50 50;" xml:space="preserve">
<style type="text/css">
	.st0{fill:#00332E;}
</style>
<g>
	<path class="st0" d="M8.9,39.1c1.6-1.5,1.7-4,0.2-5.7c-1.5-1.6-4-1.7-5.7-0.2c-1.6,1.5-1.7,4-0.2,5.7C3.3,39,3.4,39,3.5,39.1
		c-1.3,0.7-2.1,2-2.1,3.4v4.9c0,0.4,0.4,0.8,0.8,0.8h8c0.4,0,0.8-0.4,0.8-0.8v-4.9C11,41.1,10.2,39.8,8.9,39.1z M6.2,33.8
		c1.3,0,2.4,1.1,2.4,2.4c0,1.3-1.1,2.4-2.4,2.4s-2.4-1.1-2.4-2.4C3.8,34.9,4.9,33.8,6.2,33.8z M9.4,46.6H3v-4.1c0-1.3,1-2.3,2.3-2.3
		H7c1.3,0,2.3,1,2.3,2.3L9.4,46.6L9.4,46.6z"/>
	<path class="st0" d="M28.6,9.8c0-2.2-1.8-4-4-4s-4,1.8-4,4s1.8,4,4,4S28.6,12,28.6,9.8z M24.6,12.2c-1.3,0-2.4-1.1-2.4-2.4
		s1.1-2.4,2.4-2.4S27,8.5,27,9.8S25.9,12.2,24.6,12.2z"/>
	<rect x="23.8" y="1" class="st0" width="1.6" height="3.2"/>
	<rect x="23.8" y="15.4" class="st0" width="1.6" height="3.2"/>
	<rect x="15.8" y="9" class="st0" width="3.2" height="1.6"/>
	<rect x="30.2" y="9" class="st0" width="3.2" height="1.6"/>
	<rect x="28.2" y="3.8" transform="matrix(0.7071 -0.7071 0.7071 0.7071 5.4894 22.4714)" class="st0" width="3.3" height="1.6"/>
	<rect x="17.7" y="14.2" transform="matrix(0.7071 -0.7071 0.7071 0.7071 -4.9385 18.0579)" class="st0" width="3.3" height="1.6"/>
	<rect x="18.6" y="2.9" transform="matrix(0.7071 -0.7071 0.7071 0.7071 2.4822 15.0511)" class="st0" width="1.6" height="3.3"/>
	<rect x="29" y="13.4" transform="matrix(0.7071 -0.7071 0.7071 0.7071 -1.9314 25.4794)" class="st0" width="1.6" height="3.3"/>
	<path class="st0" d="M44.2,21.2c-1.3-2.4-4.3-3.3-6.7-2c-0.9,0.5-1.6,1.2-2.1,2.1C33,21.5,31.1,23.5,31,26c0,0.9,0.3,1.7,0.7,2.4
		c-0.1,0.3-0.1,0.5-0.1,0.8c0,2.7,2.2,4.8,4.9,4.7c0.8,0,1.6-0.2,2.3-0.6c0,0,0.1,0.1,0.2,0.1v6c-5,0.2-8,1.9-8,4.8
		c0,2.7,3.9,4.8,8.8,4.8s8.8-2.1,8.8-4.8c0-2.5-3.5-4.6-8-4.8v-5.1c0.6,0.2,1.2,0.3,1.9,0.3c2.9,0.1,5.3-2.1,5.5-5v-0.1
		c0-0.5-0.1-0.9-0.2-1.3c0.6-0.7,0.9-1.7,0.9-2.6C48.6,23.2,46.6,21.2,44.2,21.2z M47,44.2c0,1.5-3,3.2-7.2,3.2s-7.2-1.7-7.2-3.2
		c0-2.4,3.7-3.2,7.2-3.2C44,41,47,42.7,47,44.2z M46.2,27.5c-0.2,0.2-0.3,0.6-0.2,0.9c0.2,0.4,0.2,0.8,0.2,1.2
		c-0.1,2-1.8,3.6-3.8,3.5l0,0c-0.6,0-1.3-0.2-1.9-0.5V31l2.9-2.2l-1-1.3L40.6,29v-2.4H39V29l-1.9-1.4l-1,1.3L39,31v0.5
		c0,0,0,0-0.1,0c-0.2,0-0.3,0.1-0.5,0.2c-0.6,0.4-1.3,0.7-2,0.7c-1.7,0-3.2-1.4-3.2-3.1c0-0.3,0-0.5,0.1-0.8c0.1-0.2,0-0.5-0.1-0.7
		c-0.4-0.5-0.6-1.1-0.6-1.8c0.1-1.8,1.6-3.2,3.4-3.1c0.3,0,0.6-0.2,0.7-0.6c0.7-1.7,2.6-2.5,4.4-1.8c0.8,0.3,1.5,1,1.8,1.8
		c0.1,0.4,0.5,0.6,0.9,0.6c0.1,0,0.2,0,0.4,0c1.6,0,2.8,1.2,2.9,2.8C47,26.3,46.7,27,46.2,27.5z"/>
	<path class="st0" d="M8.6,28.2L8.6,28.2L8.6,28.2L8.6,28.2C8.6,28.6,9,29,9.4,29s0.8-0.4,0.8-0.8l0,0c0.3-0.7,0.9-1.3,1.6-1.6V25
		c-1,0.1-1.8,0.7-2.4,1.4C8.8,25.7,8,25.1,7,25v1.6C7.7,26.9,8.3,27.5,8.6,28.2L8.6,28.2L8.6,28.2z"/>
	<path class="st0" d="M16.6,28.2L16.6,28.2L16.6,28.2L16.6,28.2c0,0.4,0.4,0.8,0.8,0.8s0.8-0.4,0.8-0.8l0,0c0.3-0.7,0.9-1.3,1.6-1.6
		V25c-1,0.1-1.8,0.7-2.4,1.4C16.8,25.7,16,25.1,15,25v1.6C15.7,26.9,16.3,27.5,16.6,28.2L16.6,28.2L16.6,28.2z"/>
	<path class="st0" d="M14.2,32.2c0.3-0.7,0.9-1.3,1.6-1.6V29c-1,0.1-1.8,0.7-2.4,1.4C12.8,29.7,12,29.1,11,29v1.6
		c0.7,0.3,1.3,0.9,1.6,1.6l0,0l0,0l0,0l0,0c0,0.4,0.4,0.8,0.8,0.8C13.8,33,14.2,32.6,14.2,32.2z"/>
	<rect x="41.4" y="43.4" class="st0" width="3.2" height="1.6"/>
	<rect x="35.8" y="42.6" class="st0" width="3.2" height="1.6"/>
	<path class="st0" d="M12.2,11C6.4,14.8,3,21.3,3,28.2c0,0.8,0,1.7,0.1,2.5l1.6-0.2c-0.1-0.8-0.1-1.5-0.1-2.3
		c0-6.4,3.2-12.3,8.4-15.9L12.2,11z"/>
	<path class="st0" d="M23.8,47.4c-3.5,0-7-1-10-2.8L13,46c5,3,11,3.8,16.6,2.2l-0.4-1.5C27.4,47.1,25.6,47.4,23.8,47.4z"/>
	<path class="st0" d="M34.6,12.3c2.1,1.4,4,3.3,5.4,5.5l1.3-0.9c-1.5-2.4-3.5-4.4-5.8-5.9L34.6,12.3z"/>
</g>
</svg>
