<?xml version="1.0" encoding="utf-8"?>
<!-- Generator: Adobe Illustrator 24.1.2, SVG Export Plug-In . SVG Version: 6.00 Build 0)  -->
<svg version="1.1" id="Layer_1" xmlns="http://www.w3.org/2000/svg" xmlns:xlink="http://www.w3.org/1999/xlink" x="0px" y="0px"
	 viewBox="0 0 50 50" style="enable-background:new 0 0 50 50;" xml:space="preserve">
<style type="text/css">
	.st0{fill:#00332E;}
</style>
<g>
	<g>
		<g>
			<path class="st0" d="M34,41H16v-4.3c0-3.5-1.2-6.9-3.5-9.6C10.2,24.2,8.9,20.6,9,17C9,8.5,15.8,1.4,24.2,1
				c4.4-0.2,8.6,1.4,11.8,4.4c3.2,3,5,7.2,5,11.6c0,3.8-1.3,7.4-3.7,10.3c-2.1,2.5-3.3,5.8-3.3,9.4C34,36.7,34,41,34,41z M18,39h14
				v-2.3c0-4,1.3-7.8,3.7-10.7c2.1-2.5,3.3-5.7,3.3-9c0-3.9-1.5-7.5-4.3-10.1c-2.8-2.7-6.5-4-10.3-3.9C17,3.4,11,9.6,11,16.9
				c0,3.2,1.1,6.4,3.1,8.9c2.5,3.1,3.9,7,3.9,10.9V39z"/>
		</g>
		<g>
			<path class="st0" d="M28,49h-6c-2.8,0-5-2.2-5-5v-1h16v1C33,46.8,30.7,49,28,49z M19.1,45c0.4,1.2,1.5,2,2.8,2h6
				c1.3,0,2.4-0.8,2.8-2H19.1z"/>
		</g>
		<g>
			<polygon class="st0" points="34,45 16,45 16,40 18,40 18,43 32,43 32,40 34,40 			"/>
		</g>
	</g>
	<g>
		<path class="st0" d="M22,28.3l-0.4-0.9c-3.7-7.4-0.7-16.4,6.7-20L29.2,7l0.4,0.9c1.8,3.6,2,7.7,0.8,11.5s-4,6.9-7.6,8.6L22,28.3z
			 M28.3,9.6c-5.5,3.3-7.8,10.1-5.4,16c2.7-1.6,4.6-4,5.6-7S29.4,12.5,28.3,9.6z"/>
	</g>
	<g>
		<path class="st0" d="M24,40.2l-2.1-8.8c-1-4.3-0.6-8.7,1.1-12.8l1.7-4l1.8,0.8l-1.7,4c-1.6,3.7-1.9,7.7-1,11.5l2.1,8.8L24,40.2z"
			/>
	</g>
</g>
</svg>
