<?xml version="1.0" encoding="utf-8"?>
<!-- Generator: Adobe Illustrator 24.1.2, SVG Export Plug-In . SVG Version: 6.00 Build 0)  -->
<svg version="1.1" id="Layer_1" xmlns="http://www.w3.org/2000/svg" xmlns:xlink="http://www.w3.org/1999/xlink" x="0px" y="0px"
	 viewBox="0 0 50 50" style="enable-background:new 0 0 50 50;" xml:space="preserve">
<style type="text/css">
	.st0{fill:#00332E;}
</style>
<g>
	<path class="st0" d="M25,49c10.5,0,19-8.6,19-19.2s-8.5-19.2-19-19.2S6,19.2,6,29.8S14.5,49,25,49z M10,21.8c0.6,0,1.2,0.2,1.7,0.7
		c0.4,0.5,0.7,1.1,0.7,1.8c0,0.8,0.3,1.6,0.9,2.2c0.6,0.6,1.4,0.9,2.2,0.9c1.7,0,3.2-1.4,3.2-3.2v-4.4c0-0.7,0.5-1.2,1.2-1.2
		s1.2,0.5,1.2,1.2v2c0,2.2,1.8,4,4,4s4-1.8,4-4v-2.4c0-0.9,0.7-1.6,1.6-1.6s1.6,0.7,1.6,1.6v0.8c0,1.8,1.4,3.2,3.2,3.2
		c0.8,0,1.6-0.3,2.2-0.9c0.6-0.6,1.4-1.2,2.6-1.4c1.3,2.4,2.2,5.1,2.3,8H36c0-1.4-0.2-2.8-0.5-4.2L34,25.2c0.3,1.3,0.4,2.5,0.5,3.8
		H29v1.6h5.5c-0.1,2.5-0.6,4.9-1.4,7.2h-7.2v-2.4h-1.6v2.4H17c-0.9-2.3-1.4-4.7-1.4-7.2H21V29H7.6c0.1-2.6,0.8-5,1.9-7.2H10z
		 M42.4,30.6c-0.1,2.6-0.8,5-1.9,7.2h-5.8c0.8-2.3,1.3-4.7,1.3-7.2C36,30.6,42.4,30.6,42.4,30.6z M25.8,44.2v-4.8h6.5
		c-0.9,1.9-2,3.6-3.3,5.1C28,44.4,26.9,44.2,25.8,44.2z M24.2,44.2c-1.2,0-2.3,0.1-3.4,0.3l0.1-0.1c-1.3-1.5-2.4-3.3-3.3-5.1h6.6
		C24.2,39.3,24.2,44.2,24.2,44.2z M14,30.6c0.1,2.5,0.5,4.9,1.3,7.2H9.5c-1.1-2.2-1.8-4.6-1.9-7.2C7.6,30.6,14,30.6,14,30.6z
		 M10.4,39.4h5.5c0.8,2,1.9,3.8,3.3,5.5c-0.7,0.2-1.4,0.4-2,0.6C14.4,44.1,12.1,42,10.4,39.4z M19.5,46.5c1.7-0.4,3.6-0.7,5.5-0.7
		s3.8,0.2,5.5,0.7c-1.7,0.6-3.6,0.9-5.5,0.9S21.2,47.1,19.5,46.5z M32.8,45.5c-0.6-0.2-1.3-0.5-2-0.6c1.3-1.7,2.4-3.5,3.3-5.5h5.5
		C37.9,42,35.6,44.1,32.8,45.5z M25,12.2c5.8,0,11,2.9,14.2,7.4c-1,0.3-2,0.9-2.8,1.7c-0.3,0.3-0.7,0.5-1.1,0.5
		c-0.9,0-1.6-0.7-1.6-1.6v-0.8c0-1.8-1.4-3.2-3.2-3.2s-3.2,1.4-3.2,3.2v2.4c0,1.3-1.1,2.4-2.4,2.4s-2.4-1.1-2.4-2.4v-2
		c0-1.5-1.2-2.8-2.8-2.8s-2.8,1.3-2.8,2.8v4.4c0,0.9-0.7,1.6-1.7,1.6c-0.4,0-0.8-0.2-1.1-0.4c-0.3-0.3-0.4-0.7-0.4-1.2
		c0-1.1-0.4-2.1-1.2-2.8c-0.6-0.7-1.5-1-2.4-1.1C13.5,15.4,18.9,12.2,25,12.2z"/>
	<path class="st0" d="M25.5,2.8C25.9,2.5,26.6,2,26.6,1H25c0,0.2-0.1,0.3-0.5,0.6s-1.1,0.8-1.1,1.8s0.7,1.5,1.1,1.8
		C24.9,5.5,25,5.6,25,5.8c0,0.2-0.1,0.3-0.5,0.6c-0.4,0.3-1.1,0.8-1.1,1.8H25c0-0.2,0.1-0.3,0.5-0.6c0.4-0.3,1.1-0.8,1.1-1.8
		S25.9,4.3,25.5,4S25,3.6,25,3.4C25,3.2,25.1,3.1,25.5,2.8z"/>
	<path class="st0" d="M31.8,3.6c0.4-0.3,1.1-0.8,1.1-1.8h-1.6c0,0.2-0.1,0.3-0.5,0.6s-1.1,0.8-1.1,1.8s0.7,1.5,1.1,1.8
		s0.5,0.4,0.5,0.6s-0.1,0.3-0.5,0.6C30.4,7.5,29.7,8,29.7,9h1.6c0-0.2,0.1-0.3,0.5-0.6s1.1-0.8,1.1-1.8s-0.7-1.5-1.1-1.8
		s-0.5-0.4-0.5-0.6C31.3,4,31.4,3.9,31.8,3.6z"/>
	<path class="st0" d="M19.2,3.6c0.4-0.3,1.1-0.8,1.1-1.8h-1.6c0,0.2-0.1,0.3-0.5,0.6s-1.1,0.8-1.1,1.8s0.7,1.5,1.1,1.8
		s0.5,0.4,0.5,0.6s-0.1,0.3-0.5,0.6C17.8,7.5,17.1,8,17.1,9h1.6c0-0.2,0.1-0.3,0.5-0.6s1.1-0.8,1.1-1.8s-0.7-1.5-1.1-1.8
		s-0.5-0.4-0.5-0.6C18.7,4,18.8,3.9,19.2,3.6z"/>
	<path class="st0" d="M25,33.8c1.3,0,2.4-1.1,2.4-2.4v-1.6c0-1.3-1.1-2.4-2.4-2.4s-2.4,1.1-2.4,2.4v1.6C22.6,32.7,23.7,33.8,25,33.8
		z M24.2,29.8c0-0.4,0.4-0.8,0.8-0.8s0.8,0.4,0.8,0.8v1.6c0,0.4-0.4,0.8-0.8,0.8s-0.8-0.4-0.8-0.8V29.8z"/>
</g>
</svg>
