<?xml version="1.0" encoding="utf-8"?>
<!-- Generator: Adobe Illustrator 24.1.2, SVG Export Plug-In . SVG Version: 6.00 Build 0)  -->
<svg version="1.1"
	 id="Layer_1" xmlns:cc="http://creativecommons.org/ns#" xmlns:dc="http://purl.org/dc/elements/1.1/" xmlns:inkscape="http://www.inkscape.org/namespaces/inkscape" xmlns:rdf="http://www.w3.org/1999/02/22-rdf-syntax-ns#" xmlns:sodipodi="http://sodipodi.sourceforge.net/DTD/sodipodi-0.dtd" xmlns:svg="http://www.w3.org/2000/svg"
	 xmlns="http://www.w3.org/2000/svg" xmlns:xlink="http://www.w3.org/1999/xlink" x="0px" y="0px" viewBox="0 0 50 50"
	 style="enable-background:new 0 0 50 50;" xml:space="preserve">
<style type="text/css">
	.st0{fill-rule:evenodd;clip-rule:evenodd;fill:#00332E;}
</style>
<g transform="translate(0,-1020.3622)">
	<path class="st0" d="M25,1021.4c-13.2,0-24,10.7-24,24c0,13.2,10.8,24,24,24s24-10.8,24-24C49,1032.1,38.3,1021.4,25,1021.4z
		 M25,1022.9c5.9,0,11.3,2.3,15.3,6.1l-5.3,5.3l1.1,1.1l5.3-5.3c3.7,4,6.1,9.4,6.1,15.3c0,12.4-10,22.5-22.5,22.5
		c-5.9,0-11.3-2.3-15.3-6.1l10.1-10.1l-1.1-1.1l-10.1,10.1c-3.7-4-6.1-9.4-6.1-15.3C2.5,1032.9,12.6,1022.9,25,1022.9L25,1022.9z"/>
	<path class="st0" d="M20.4,1044.4c-1,0-1,1.6,0,1.6h0.8v10.8c0,2.1,1.7,3.9,3.9,3.9c2.1,0,3.9-1.7,3.9-3.9v-5.2v-5.7
		c0,0,0.5,0,0.8,0c1,0,1.1-1.5,0-1.6L20.4,1044.4z M27.3,1046v5.8h-4.6v-5.7L27.3,1046z"/>
	<path class="st0" d="M23,1037c0.5-2.3-0.8-4.6-3.1-5.4l-3.3-1.1l-1.3-0.4v4.8c0,2.4,1.8,4.4,4.1,4.7l2.8,0.1L23,1037z"/>
	<path class="st0" d="M32.6,1036.3l4,0.7l-2.9,3.1c-1.1,1.2-3,1.5-4.4,0.6l-1.1-0.7l0.3-1.2C29.1,1037.1,30.8,1036,32.6,1036.3
		L32.6,1036.3z"/>
	<path class="st0" d="M18.4,1032.9c-0.6,0-1,0.7-0.6,1.2c0,0,1.2,1.6,2.5,3.7s2.8,4.6,3.3,6.4c0.4,1.5,0.6,3.9,0.7,6h1.6
		c-0.1-2.2-0.2-4.7-0.8-6.5c-0.6-2.1-2.1-4.6-3.5-6.7c-1.3-2.1-2.5-3.8-2.5-3.8C18.9,1033,18.6,1032.9,18.4,1032.9L18.4,1032.9
		L18.4,1032.9z"/>
	<path class="st0" d="M32.3,1037.5c0.4,0,0.8,0.4,0.8,0.8c0,0.3-0.2,0.6-0.5,0.7c0,0-1.6,0.6-3.4,1.6c-1.7,1-3.5,2.4-3.9,3.5
		c-0.1,0.4-0.5,0.7-0.9,0.6s-0.7-0.5-0.6-0.9c0-0.1,0-0.1,0.1-0.2c0.7-1.9,2.8-3.3,4.6-4.3c1.9-1.1,3.6-1.7,3.6-1.7
		C32.1,1037.5,32.2,1037.5,32.3,1037.5L32.3,1037.5z"/>
</g>
</svg>
