<?xml version="1.0" encoding="utf-8"?>
<!-- Generator: Adobe Illustrator 24.1.2, SVG Export Plug-In . SVG Version: 6.00 Build 0)  -->
<svg version="1.1"
	 id="Layer_1" xmlns:cc="http://creativecommons.org/ns#" xmlns:dc="http://purl.org/dc/elements/1.1/" xmlns:inkscape="http://www.inkscape.org/namespaces/inkscape" xmlns:rdf="http://www.w3.org/1999/02/22-rdf-syntax-ns#" xmlns:sodipodi="http://sodipodi.sourceforge.net/DTD/sodipodi-0.dtd" xmlns:svg="http://www.w3.org/2000/svg"
	 xmlns="http://www.w3.org/2000/svg" xmlns:xlink="http://www.w3.org/1999/xlink" x="0px" y="0px" viewBox="0 0 50 50"
	 style="enable-background:new 0 0 50 50;" xml:space="preserve">
<style type="text/css">
	.st0{fill:#00332E;}
	.st1{fill-rule:evenodd;clip-rule:evenodd;fill:#00332E;}
</style>
<g transform="translate(0,-1004.3622)">
	<path class="st0" d="M25,1005.4c-13.2,0-24,10.8-24,24c0,13.2,10.8,24,24,24s24-10.8,24-24C49,1016.1,38.2,1005.4,25,1005.4z
		 M25,1007.4c12.2,0,22,9.8,22,22c0,12.2-9.8,22-22,22s-22-9.8-22-22S12.8,1007.4,25,1007.4z"/>
	<path class="st1" d="M19,1016.4c-0.6,0-1,0.4-1,1c0,0.3,0.1,0.5,0.3,0.7c0,0,0.7,0.7,1.5,1.7s1.7,2.2,2.1,3
		c0.8,1.6,1.2,3.5,1.5,5.4l1.7-1.7c-0.3-1.5-0.7-3.1-1.4-4.5c-0.5-1.1-1.5-2.4-2.4-3.4s-1.6-1.8-1.6-1.8
		C19.6,1016.5,19.3,1016.4,19,1016.4L19,1016.4z M25.8,1031.4l-1.9,1.9c0.1,3.2,0,7.1,0,7.1c0,0.6,0.4,1,1,1s1-0.4,1-1l0,0
		C26,1040.4,26.1,1035,25.8,1031.4L25.8,1031.4z"/>
	<path class="st1" d="M14.2,1011.4c-0.5,0-0.9,0.4-1,0.9c0,0-0.1,0.9-0.2,2.1c-0.1,1.2-0.1,2.5,0.2,3.6c0.3,1.4,0.8,3,2.1,4.1
		c1.9,1.5,4.6,2.8,7.2,2c1.9-0.6,3.1-2.5,3.4-4.4c0.3-2-0.7-4.1-2.1-5.4c-1.5-1.3-3.8-2-5.8-2.4C16,1011.5,14.3,1011.4,14.2,1011.4
		L14.2,1011.4L14.2,1011.4z M15.1,1013.5c0.6,0.1,1.2,0.1,2.5,0.4c1.9,0.4,4.1,1.1,4.9,1.9c1,0.9,1.6,2.5,1.5,3.6s-1.1,2.5-2,2.8
		c-1.5,0.5-3.8-0.4-5.3-1.6c-0.7-0.6-1.2-1.8-1.5-3.1c-0.2-0.6-0.2-2-0.1-3.1C15.1,1013.9,15.1,1013.9,15.1,1013.5L15.1,1013.5z"/>
	<path class="st1" d="M33.2,1018.4c-1.3,0-2.6,0.4-3.7,1.2s-2.4,2.1-2.4,3.8c0,0.3,0.1,0.7,0.1,1L33.2,1018.4z M37.4,1019.8
		l-1.5,1.5c0,0,0.1,0,0.1,0.1c0.3,0.2,0.4,0.2,0.6,0.4c-0.2,0.4-0.3,0.6-0.8,1.3c-0.7,1.1-1.8,2.2-2.3,2.5c-0.6,0.3-1.4,0.4-2.2,0.3
		l-1.6,1.6c1.5,0.7,3.2,0.6,4.6-0.1c1.4-0.6,2.3-2,3.1-3.2c0.8-1.2,1.3-2.3,1.3-2.3c0.2-0.4,0.1-1-0.3-1.3
		C38.6,1020.6,38.1,1020.2,37.4,1019.8z"/>
	<path class="st0" d="M21,1029.4v1.2l1.2-1.2H21z M27.8,1029.4l-0.8,0.8v13.3c0,0.6-0.4,1.2-1,1.6c-0.6,0.3-1.4,0.3-2,0
		s-1-0.9-1-1.6v-9.3l-2,2v7.3c0,1.4,0.8,2.7,2,3.3c1.2,0.7,2.7,0.7,4,0l0,0c1.2-0.7,2-1.9,2-3.3v-14.2
		C29,1029.4,27.8,1029.4,27.8,1029.4z"/>
	<path class="st1" d="M20.5,1028.4c-0.6,0-1,0.4-1,1s0.4,1,1,1l0,0h0.6l2-2H20.5z M28.8,1028.4l-2,2h3c0.6,0,1-0.4,1-1s-0.4-1-1-1
		l0,0H28.8z"/>
	<path class="st1" d="M22,1035.4v1.5c0,0.2,0,0.3-0.1,0.5H22h5.8c0.6,0,1-0.4,1-1s-0.4-1-1-1l0,0H22L22,1035.4z"/>
	<path class="st1" d="M41,1012.4c-0.3,0-0.5,0.1-0.7,0.3l-32,32c-0.4,0.4-0.4,1,0,1.4c0.4,0.4,1,0.4,1.4,0l0,0l32-32
		c0.4-0.4,0.4-1,0-1.4C41.5,1012.5,41.3,1012.3,41,1012.4L41,1012.4z"/>
</g>
</svg>
