<?xml version="1.0" encoding="utf-8"?>
<!-- Generator: Adobe Illustrator 24.1.2, SVG Export Plug-In . SVG Version: 6.00 Build 0)  -->
<svg version="1.1" id="Layer_1" xmlns="http://www.w3.org/2000/svg" xmlns:xlink="http://www.w3.org/1999/xlink" x="0px" y="0px"
	 viewBox="0 0 50 50" style="enable-background:new 0 0 50 50;" xml:space="preserve">
<style type="text/css">
	.st0{fill:#00332E;}
	.st1{fill:#00332E;stroke:#FFFFFF;stroke-miterlimit:10;}
	.st2{fill:#00332E;stroke:#00332E;stroke-width:0.75;stroke-miterlimit:10;}
	.st3{fill-rule:evenodd;clip-rule:evenodd;}
</style>
<g>
	<path d="M-41.8,1c-13.2,0-24,10.8-24,24s10.8,24,24,24s24-10.8,24-24S-28.5,1-41.8,1z M-64.3,25c0-12.4,10.1-22.5,22.5-22.5
		c6.5,0,12.3,2.8,16.4,7.1l-31.6,32C-61.5,37.5-64.3,31.6-64.3,25z M-41.8,47.5c-5.3,0-10.2-1.9-14.1-5l31.5-31.9
		c3.2,3.9,5.1,8.9,5.1,14.3C-19.2,37.4-29.3,47.5-41.8,47.5z"/>
</g>
<g>
	<path class="st0" d="M21.8,33.6c1.4,0,2.5-1.1,2.5-2.5s-1.1-2.5-2.5-2.5s-2.5,1.1-2.5,2.5S20.4,33.6,21.8,33.6z M21.8,29.8
		c0.7,0,1.3,0.6,1.3,1.3s-0.6,1.3-1.3,1.3s-1.3-0.6-1.3-1.3S21.1,29.8,21.8,29.8z"/>
	<path class="st0" d="M28.2,33.6c1.4,0,2.5-1.1,2.5-2.5s-1.1-2.5-2.5-2.5c-1.4,0-2.5,1.1-2.5,2.5S26.8,33.6,28.2,33.6z M28.2,29.8
		c0.7,0,1.3,0.6,1.3,1.3s-0.6,1.3-1.3,1.3s-1.3-0.6-1.3-1.3S27.5,29.8,28.2,29.8z"/>
	<path class="st0" d="M19.3,36.6v2.8c0,0.3,0.3,0.6,0.6,0.6h10.1c0.4,0,0.6-0.3,0.6-0.6v-3.2c1.6-1.2,2.5-3.1,2.5-5
		c0-3.7-3.5-6.3-8.2-6.3s-8.2,2.7-8.2,6.3C16.8,33.5,17.6,35.5,19.3,36.6z M25,26c4,0,7,2.1,7,5.1c-0.1,1.7-0.9,3.2-2.3,4.2
		c-0.2,0.1-0.3,0.3-0.3,0.5v2.9h-1.3v-1.3c0-0.3-0.3-0.6-0.6-0.6s-0.6,0.3-0.6,0.6v1.3h-1.3v-1.3c0-0.3-0.3-0.6-0.6-0.6
		s-0.6,0.3-0.6,0.6v1.3h-1.3v-1.3c0-0.3-0.3-0.6-0.6-0.6s-0.6,0.3-0.6,0.6v1.3h-1.3v-2.5c0-0.2-0.1-0.4-0.3-0.5
		c-1.8-1-2.2-3.1-2.2-4.6C18,28.1,21,26,25,26z"/>
	<path class="st0" d="M23.3,33.8l-0.6,0.6c-0.2,0.2-0.3,0.6,0,0.9s0.6,0.3,0.9,0c0,0,0,0,0,0l0.6-0.6c0.2-0.2,0.2-0.7,0-0.9
		C23.9,33.6,23.5,33.6,23.3,33.8z"/>
	<path class="st0" d="M26.5,35.3c0.2,0.2,0.6,0.2,0.9,0c0.2-0.2,0.2-0.6,0-0.9l-0.6-0.6c-0.2-0.2-0.6-0.2-0.9,0
		c-0.2,0.2-0.2,0.6,0,0.9L26.5,35.3z"/>
	<path class="st0" d="M25,44.4c6.5-0.2,11.6-5.5,11.4-11.9c-0.1-4.8-3.1-9-7.6-10.7V14h0.6c0.4,0,0.6-0.3,0.6-0.6v-2.5
		c0-0.4-0.3-0.6-0.6-0.6h-8.9c-0.4,0-0.6,0.3-0.6,0.6v2.5c0,0.4,0.3,0.6,0.6,0.6h0.6v7.8c-6.1,2.2-9.1,9-6.9,15
		C16,41.3,20.2,44.3,25,44.4z M21.2,11.4h7.6v1.3h-7.6V11.4z M22,22.8c0.3-0.1,0.4-0.3,0.4-0.6v-8.3h5.1v8.3c0,0.3,0.2,0.5,0.4,0.6
		c5.5,1.8,8.4,7.7,6.7,13.1c-1.4,4.2-5.2,7.1-9.6,7.2c-5.8-0.2-10.3-4.9-10.1-10.7C15,28,17.8,24.2,22,22.8z"/>
</g>
<g>
	<g>
		<path class="st1" d="M9.6,42.2L41.8,9.1l-2.2-2.6L6.7,40.3L9.6,42.2z"/>
	</g>
	<g>
		<path class="st2" d="M25,1C11.8,1,1,11.8,1,25s10.8,24,24,24c13.2,0,24-10.8,24-24S38.2,1,25,1z M42.4,10.7
			c3.2,3.9,5.1,8.9,5.1,14.3c0,12.4-10.1,22.5-22.5,22.5c-5.3,0-10.2-1.9-14.1-5l-1.1-1c-4.5-4.1-7.3-10-7.3-16.6
			C2.5,12.6,12.6,2.5,25,2.5c6.5,0,12.3,2.8,16.4,7.1L42.4,10.7z"/>
	</g>
</g>
<g transform="translate(0,-1004.3622)">
	<path d="M85.8,1005.4c-13.2,0-24,10.8-24,24s10.8,24,24,24s24-10.8,24-24C109.8,1016.1,99,1005.4,85.8,1005.4z M85.8,1007.4
		c12.2,0,22,9.8,22,22s-9.8,22-22,22s-22-9.8-22-22C63.8,1017.2,73.6,1007.4,85.8,1007.4z"/>
	<path class="st3" d="M79.8,1016.4c-0.6,0-1,0.4-1,1c0,0.3,0.1,0.5,0.3,0.7c0,0,0.7,0.7,1.5,1.7s1.7,2.2,2.1,3
		c0.8,1.6,1.2,3.5,1.5,5.4l1.7-1.7c-0.3-1.5-0.7-3.1-1.4-4.5c-0.5-1.1-1.5-2.4-2.4-3.4s-1.6-1.8-1.6-1.8
		C80.4,1016.5,80.1,1016.4,79.8,1016.4L79.8,1016.4z M86.6,1031.4l-1.9,1.9c0.1,3.2,0,7.1,0,7.1c0,0.6,0.4,1,1,1s1-0.4,1-1l0,0
		C86.8,1040.4,86.9,1035,86.6,1031.4L86.6,1031.4z"/>
	<path class="st3" d="M75,1011.4c-0.5,0-0.9,0.4-1,0.9c0,0-0.1,0.9-0.2,2.1c-0.1,1.2-0.1,2.5,0.2,3.6c0.3,1.4,0.8,3,2.1,4.1
		c1.9,1.5,4.6,2.8,7.2,2c1.9-0.6,3.1-2.5,3.4-4.4c0.3-2-0.7-4.1-2.1-5.4c-1.5-1.3-3.8-2-5.8-2.4C76.8,1011.5,75.1,1011.4,75,1011.4
		L75,1011.4L75,1011.4z M75.9,1013.5c0.6,0.1,1.2,0.1,2.5,0.4c1.9,0.4,4.1,1.1,4.9,1.9c1,0.9,1.6,2.5,1.5,3.6s-1.1,2.5-2,2.8
		c-1.5,0.5-3.8-0.4-5.3-1.6c-0.7-0.6-1.2-1.8-1.5-3.1c-0.2-0.6-0.2-2-0.1-3.1C75.9,1013.9,75.9,1013.9,75.9,1013.5L75.9,1013.5z"/>
	<path class="st3" d="M94,1018.4c-1.3,0-2.6,0.4-3.7,1.2s-2.4,2.1-2.4,3.8c0,0.3,0.1,0.7,0.1,1L94,1018.4z M98.2,1019.8l-1.5,1.5
		c0,0,0.1,0,0.1,0.1c0.3,0.2,0.4,0.2,0.6,0.4c-0.2,0.4-0.3,0.6-0.8,1.3c-0.7,1.1-1.8,2.2-2.3,2.5c-0.6,0.3-1.4,0.4-2.2,0.3l-1.6,1.6
		c1.5,0.7,3.2,0.6,4.6-0.1c1.4-0.6,2.3-2,3.1-3.2c0.8-1.2,1.3-2.3,1.3-2.3c0.2-0.4,0.1-1-0.3-1.3
		C99.4,1020.6,98.9,1020.2,98.2,1019.8z"/>
	<path d="M81.8,1029.4v1.2l1.2-1.2H81.8z M88.6,1029.4l-0.8,0.8v13.3c0,0.6-0.4,1.2-1,1.6c-0.6,0.3-1.4,0.3-2,0s-1-0.9-1-1.6v-9.3
		l-2,2v7.3c0,1.4,0.8,2.7,2,3.3c1.2,0.7,2.7,0.7,4,0l0,0c1.2-0.7,2-1.9,2-3.3v-14.2C89.8,1029.4,88.6,1029.4,88.6,1029.4z"/>
	<path class="st3" d="M81.3,1028.4c-0.6,0-1,0.4-1,1s0.4,1,1,1l0,0h0.6l2-2H81.3z M89.6,1028.4l-2,2h3c0.6,0,1-0.4,1-1s-0.4-1-1-1
		l0,0H89.6z"/>
	<path class="st3" d="M82.8,1035.4v1.5c0,0.2,0,0.3-0.1,0.5h0.1h5.8c0.6,0,1-0.4,1-1s-0.4-1-1-1l0,0H82.8L82.8,1035.4z"/>
	<path class="st3" d="M101.8,1012.4c-0.3,0-0.5,0.1-0.7,0.3l-32,32c-0.4,0.4-0.4,1,0,1.4s1,0.4,1.4,0l0,0l32-32c0.4-0.4,0.4-1,0-1.4
		C102.3,1012.5,102.1,1012.3,101.8,1012.4L101.8,1012.4z"/>
</g>
<rect x="15.5" y="6.4" class="st0" width="1.3" height="1.3"/>
<rect x="15.5" y="9" class="st0" width="1.3" height="1.3"/>
<rect x="14.2" y="7.7" class="st0" width="1.3" height="1.3"/>
<rect x="16.8" y="7.7" class="st0" width="1.3" height="1.3"/>
<rect x="36.7" y="16.2" class="st0" width="1.3" height="1.3"/>
<rect x="36.7" y="18.8" class="st0" width="1.3" height="1.3"/>
<rect x="35.4" y="17.5" class="st0" width="1.3" height="1.3"/>
<rect x="38" y="17.5" class="st0" width="1.3" height="1.3"/>
</svg>
