<?xml version="1.0" encoding="utf-8"?>
<!-- Generator: Adobe Illustrator 24.1.2, SVG Export Plug-In . SVG Version: 6.00 Build 0)  -->
<svg version="1.1" id="Layer_1" xmlns="http://www.w3.org/2000/svg" xmlns:xlink="http://www.w3.org/1999/xlink" x="0px" y="0px"
	 viewBox="0 0 50 50" style="enable-background:new 0 0 50 50;" xml:space="preserve">
<style type="text/css">
	.st0{fill:#00332E;}
	.st1{fill-rule:evenodd;clip-rule:evenodd;fill:#00332E;}
</style>
<g>
	<g>
		<g>
			<path class="st0" d="M46,25c0,0.6,0,1.1-0.1,1.7c0,0.3,0,0.5-0.1,0.8c0,0.1,0,0.3,0,0.4c0-0.3,0,0.2,0,0.3
				c-0.2,1.1-0.4,2.1-0.8,3.2c-0.2,0.5-0.3,0.9-0.5,1.4c0,0.1-0.1,0.2-0.2,0.4c-0.2,0.4,0.1-0.3-0.1,0.1c-0.1,0.3-0.2,0.6-0.4,0.8
				c-0.5,1-1,1.9-1.6,2.7c-0.2,0.2-0.3,0.4-0.5,0.6c-0.1,0.1-0.2,0.2-0.2,0.3c0,0-0.2,0.2,0,0c-0.3,0.4-0.7,0.9-1.1,1.3
				c-0.7,0.8-1.5,1.5-2.3,2.2c-0.1,0.1-0.2,0.2-0.3,0.2c-0.3,0.3,0.2-0.2-0.1,0.1c-0.2,0.2-0.4,0.3-0.6,0.5
				c-0.4,0.3-0.9,0.6-1.3,0.9s-0.9,0.5-1.4,0.8c-0.2,0.1-0.4,0.2-0.7,0.3c-0.1,0-0.2,0.1-0.3,0.1c0,0-0.6,0.2-0.2,0.1
				c-1,0.4-2,0.8-3,1c-0.5,0.1-1.1,0.2-1.6,0.3c-0.3,0-0.5,0.1-0.8,0.1c0.3,0-0.1,0-0.1,0c-0.1,0-0.3,0-0.4,0
				c-1.2,0.1-2.3,0.1-3.5,0.1c-1.3-0.1-1.8-0.1-3-0.4c-1-0.2-2.1-0.5-3.1-0.9c-0.2-0.1-0.5-0.2-0.7-0.3c-0.1,0-0.3-0.2-0.1,0
				c-0.1,0-0.2-0.1-0.4-0.2c-0.5-0.2-1-0.5-1.6-0.8c-0.9-0.5-1.8-1.1-2.7-1.7c0,0-0.4-0.3-0.1-0.1c-0.1-0.1-0.2-0.2-0.3-0.2
				c-0.2-0.2-0.4-0.3-0.6-0.5c-0.4-0.4-0.8-0.7-1.2-1.1c-0.4-0.4-0.7-0.8-1.1-1.2c-0.1-0.2-0.3-0.3-0.4-0.5
				c-0.1-0.1-0.2-0.2-0.2-0.3c0.2,0.3-0.1-0.2-0.2-0.2c-0.6-0.8-1.2-1.7-1.7-2.7C6.2,34.4,6,34,5.8,33.5c-0.1-0.1-0.1-0.2-0.2-0.4
				c0.1,0.3,0-0.1-0.1-0.1c-0.1-0.2-0.2-0.5-0.3-0.8c-0.4-1-0.7-2.1-0.9-3.1c-0.1-0.3-0.1-0.5-0.2-0.8c0-0.1,0-0.3-0.1-0.4
				c-0.1-0.5,0,0.3,0-0.1C4.1,27.2,4.1,26.6,4,26c0-1.1,0-2.3,0.1-3.4c0-0.1,0-0.2,0-0.3c0-0.1,0.1-0.4,0-0.1c0-0.3,0.1-0.5,0.1-0.8
				c0.1-0.6,0.2-1.1,0.4-1.7c0.1-0.5,0.3-1,0.4-1.4c0.1-0.2,0.2-0.5,0.3-0.8c0.1-0.1,0.1-0.2,0.1-0.4c0,0,0.2-0.6,0.1-0.3
				c0.4-1,0.9-1.9,1.5-2.8c0.2-0.4,0.5-0.8,0.8-1.2c0.1-0.2,0.3-0.4,0.5-0.6c0.3-0.4-0.2,0.2,0.1-0.1c0.1-0.1,0.2-0.3,0.3-0.4
				c0.7-0.8,1.4-1.6,2.2-2.3c0.4-0.4,0.8-0.7,1.2-1c-0.3,0.2,0.1-0.1,0.1-0.1c0.1-0.1,0.1-0.1,0.2-0.2c0.2-0.2,0.5-0.4,0.8-0.5
				C14.1,7,15,6.5,15.9,6c0.2-0.1,0.5-0.2,0.7-0.3c0.4-0.2-0.3,0.1,0.1-0.1c0.1-0.1,0.2-0.1,0.4-0.2c0.5-0.2,1-0.4,1.5-0.5
				c1.1-0.3,2.1-0.6,3.2-0.7c0.1,0,0.4-0.1,0.1,0c0.1,0,0.3,0,0.4-0.1c0.3,0,0.5-0.1,0.8-0.1C23.9,4,24.5,4,25.1,4
				c1.4,0,2.5,0.1,3.6,0.3c1.2,0.2,2.5,0.6,3.7,1c0.6,0.2,0.8,0.3,1.4,0.6c0.6,0.3,1.2,0.6,1.8,0.9c0.5,0.3,1,0.6,1.4,0.9
				c0.6,0.4,0.8,0.6,1.4,1.1c3.8,3.2,6.3,7.5,7.2,12.4C45.9,22.5,46,23.6,46,25c0,0.8,0.7,1.5,1.5,1.5c0.8,0,1.5-0.7,1.5-1.5
				c0-5.7-2-11.1-5.7-15.5c-3.5-4.1-8.4-7.1-13.7-8.1c-5.1-1-10.3-0.3-14.9,1.9c-4.2,2-7.7,5.2-10.1,9.1C2.1,16.5,0.8,21.3,1,26
				c0.2,4.7,1.8,9.3,4.6,13.1c2.8,3.8,6.7,6.7,11.2,8.4c4.5,1.7,9.5,1.9,14.2,0.7c4.5-1.2,8.6-3.7,11.7-7.1c3.1-3.5,5.3-7.8,6-12.4
				c0.2-1.2,0.3-2.5,0.3-3.7c0-0.8-0.7-1.5-1.5-1.5C46.7,23.5,46,24.1,46,25z"/>
		</g>
	</g>
	<g>
		<g>
			<path class="st0" d="M40.2,8.4c-1,1.1-2.1,2.1-3.2,3.2c-2.5,2.5-5.1,5.1-7.6,7.6c-3.1,3.1-6.1,6.1-9.2,9.2
				c-2.6,2.6-5.3,5.3-7.9,7.9c-1.3,1.3-2.6,2.5-3.9,3.9c0,0,0,0-0.1,0c-0.6,0.6-0.6,1.6,0,2.1s1.6,0.6,2.1,0c1.1-1,2.1-2.1,3.2-3.2
				c2.5-2.5,5.1-5.1,7.6-7.6c3.1-3.1,6.1-6.1,9.2-9.2c2.6-2.6,5.3-5.3,7.9-7.9c1.3-1.3,2.6-2.5,3.9-3.9c0,0,0,0,0-0.1
				c0.6-0.6,0.6-1.6,0-2.1C41.7,7.8,40.7,7.8,40.2,8.4L40.2,8.4z"/>
		</g>
	</g>
</g>
<g transform="translate(0,-1004.3622)">
	<path class="st1" d="M21.1,1017.8c-0.4,0-0.6,0.3-0.7,0.6c0,0.2,0.1,0.3,0.2,0.5c0,0,0.5,0.5,1,1.1c0.5,0.6,1.1,1.4,1.4,1.9
		c0.7,1.5,1,3.2,1.2,4.9c0.3,2.4,0.1,7.6,0.1,7.6c0,0.4,0.3,0.7,0.6,0.7s0.7-0.3,0.7-0.6c0,0,0.3-5.2-0.1-7.9
		c-0.2-1.8-0.5-3.6-1.3-5.3c-0.4-0.7-1-1.5-1.5-2.2c-0.6-0.7-1-1.2-1-1.2C21.5,1017.8,21.3,1017.8,21.1,1017.8L21.1,1017.8z"/>
	<path class="st1" d="M18,1013.9c-0.3,0-0.6,0.2-0.6,0.6c0,0-0.1,0.7-0.1,1.5s0,1.8,0.1,2.5c0.2,1,0.5,2.1,1.5,2.9
		c1.3,1.1,3.2,2,5,1.4c1.3-0.5,2.2-1.8,2.3-3c0.2-1.4-0.5-2.8-1.5-3.7c-1-0.9-2.6-1.4-4.1-1.7S18.1,1013.9,18,1013.9
		C18.1,1013.9,18,1013.9,18,1013.9L18,1013.9z M18.6,1015.3c0.4,0,0.8,0.1,1.8,0.3c1.3,0.3,2.9,0.8,3.5,1.3c0.7,0.6,1.2,1.8,1.1,2.6
		c-0.1,0.8-0.8,1.8-1.5,2c-1.1,0.4-2.7-0.3-3.8-1.2c-0.5-0.4-0.8-1.3-1-2.2c-0.1-0.5-0.1-1.4-0.1-2.2
		C18.6,1015.6,18.6,1015.5,18.6,1015.3L18.6,1015.3z"/>
	<path class="st1" d="M29.5,1021c-0.1,0-0.2,0-0.2,0c0,0-1.8,0.7-2.7,1.4c-0.9,0.7-2,2-2,2c-0.2,0.3-0.2,0.7,0,0.9
		c0.3,0.2,0.7,0.2,0.9-0.1c0,0,0,0,0,0c0,0,1.2-1.4,1.8-1.8c0.6-0.4,2.4-1.2,2.4-1.2c0.3-0.1,0.5-0.5,0.4-0.8
		C30,1021.1,29.8,1021,29.5,1021L29.5,1021z"/>
	<path class="st1" d="M30.9,1018.4c-1-0.1-2.1,0.1-3,0.8c-0.7,0.5-1.6,1.3-1.6,2.5c0,1.1,0.8,2,1.6,2.5c1,0.5,2.2,0.5,3.2,0
		c0.9-0.4,1.5-1.3,2-2.1s0.9-1.5,0.9-1.5c0.1-0.3,0.1-0.6-0.2-0.8c0,0-0.4-0.3-1-0.6C32.2,1018.9,31.6,1018.5,30.9,1018.4
		L30.9,1018.4z M30.7,1019.7c0.3,0,0.9,0.3,1.4,0.6c0.2,0.1,0.2,0.2,0.4,0.2c-0.1,0.2-0.2,0.4-0.5,0.8c-0.5,0.7-1.1,1.4-1.5,1.6
		c-0.6,0.3-1.5,0.3-2,0l0,0c-0.5-0.3-1-0.9-1-1.4c0-0.4,0.5-1,1-1.4C29.2,1019.8,30,1019.6,30.7,1019.7L30.7,1019.7z"/>
	<path class="st1" d="M22.4,1026.8c-0.4,0-0.6,0.3-0.6,0.7l0,0v5.6l-6.4,10.8c-0.2,0.3-0.1,0.7,0.2,0.9c0.1,0.1,0.2,0.1,0.3,0.1h18
		c0.4,0,0.6-0.3,0.6-0.7c0-0.1,0-0.2-0.1-0.3l-6.4-10.8v-5.6c0-0.4-0.3-0.7-0.6-0.7s-0.6,0.3-0.6,0.6c0,0,0,0,0,0v5.8
		c0,0.1,0,0.2,0.1,0.3l5.9,10H17.1l5.9-10c0.1-0.1,0.1-0.2,0.1-0.3v-5.8C23.1,1027.1,22.8,1026.8,22.4,1026.8
		C22.4,1026.8,22.4,1026.8,22.4,1026.8z"/>
	<path class="st1" d="M19.9,1037.7c-0.4,0-0.6,0.3-0.6,0.6s0.3,0.7,0.6,0.7c0,0,0,0,0,0h10.3c0.4,0,0.6-0.3,0.6-0.6
		s-0.3-0.7-0.6-0.7c0,0,0,0,0,0H19.9z"/>
	<path class="st1" d="M21.1,1026.8c-0.4,0-0.6,0.3-0.6,0.6s0.3,0.7,0.6,0.7c0,0,0,0,0,0h7.7c0.4,0,0.6-0.3,0.6-0.6s-0.3-0.7-0.6-0.7
		c0,0,0,0,0,0H21.1z"/>
</g>
</svg>
