<?xml version="1.0" encoding="utf-8"?>
<!-- Generator: Adobe Illustrator 24.1.2, SVG Export Plug-In . SVG Version: 6.00 Build 0)  -->
<svg version="1.1" id="Layer_1" xmlns="http://www.w3.org/2000/svg" xmlns:xlink="http://www.w3.org/1999/xlink" x="0px" y="0px"
	 viewBox="0 0 50 50" style="enable-background:new 0 0 50 50;" xml:space="preserve">
<style type="text/css">
	.st0{fill:#00332E;}
	.st1{fill:#00332E;stroke:#00332E;stroke-width:0.25;stroke-miterlimit:10;}
</style>
<path class="st0" d="M9.1,34.5c-4,0-7.2,3.2-7.2,7.2S5.1,49,9.1,49s7.2-3.2,7.2-7.2l0,0C16.3,37.8,13.1,34.5,9.1,34.5z M9.1,47.5
	c-3.2,0-5.8-2.6-5.8-5.8s2.6-5.8,5.8-5.8s5.8,2.6,5.8,5.8C14.9,44.9,12.3,47.5,9.1,47.5z"/>
<path class="st0" d="M9.4,41.1L9.4,41.1v-1.7c0.4,0.1,0.9,0.2,1.2,0.5l0.6-0.8c-0.5-0.4-1.2-0.6-1.8-0.7V38H8.9v0.4
	c-0.5,0-1,0.2-1.4,0.5C7.1,39.3,7,39.8,7,40.2s0.1,0.9,0.4,1.2c0.4,0.3,0.9,0.5,1.4,0.7v1.7c-0.6-0.1-1.1-0.4-1.5-0.7l-0.7,0.7
	c0.6,0.5,1.4,0.9,2.2,0.9v0.7h0.6v-0.7c0.5,0,1-0.2,1.4-0.5s0.5-0.8,0.5-1.2s-0.2-0.9-0.5-1.2C10.5,41.4,10,41.2,9.4,41.1z M8.9,41
	c-0.3,0-0.5-0.2-0.6-0.4c-0.1-0.1-0.2-0.3-0.1-0.4c0-0.2,0.1-0.4,0.2-0.5c0.2-0.2,0.4-0.2,0.6-0.2L8.9,41L8.9,41z M10.1,43.5
	c-0.2,0.2-0.4,0.2-0.6,0.2v-1.6c0.3,0,0.5,0.2,0.7,0.4c0.1,0.1,0.2,0.3,0.2,0.5C10.3,43.2,10.2,43.4,10.1,43.5L10.1,43.5z"/>
<path class="st0" d="M40.9,34.5c-4,0-7.2,3.2-7.2,7.2s3.2,7.2,7.2,7.2s7.2-3.2,7.2-7.2l0,0C48.1,37.8,44.9,34.5,40.9,34.5z
	 M40.9,47.5c-3.2,0-5.8-2.6-5.8-5.8s2.6-5.8,5.8-5.8s5.8,2.6,5.8,5.8S44.1,47.5,40.9,47.5z"/>
<path class="st0" d="M41.3,41.1L41.3,41.1v-1.7c0.4,0.1,0.9,0.2,1.2,0.5l0.6-0.8c-0.5-0.4-1.2-0.6-1.8-0.7V38h-0.6v0.4
	c-0.5,0-1,0.2-1.4,0.5s-0.5,0.8-0.5,1.2s0.1,0.9,0.4,1.2c0.4,0.3,0.9,0.5,1.4,0.7v1.7c-0.6-0.1-1.1-0.4-1.5-0.7l-0.7,0.7
	c0.6,0.5,1.4,0.9,2.2,0.9v0.7h0.6v-0.7c0.5,0,1-0.2,1.5-0.5c0.4-0.3,0.5-0.8,0.5-1.2S43,42,42.7,41.7S41.9,41.2,41.3,41.1z M40.8,41
	c-0.3,0-0.5-0.2-0.7-0.4C40,40.5,40,40.4,40,40.2s0.1-0.4,0.2-0.5c0.2-0.2,0.4-0.2,0.7-0.2L40.8,41L40.8,41z M41.9,43.5
	c-0.2,0.2-0.4,0.2-0.7,0.2v-1.6c0.3,0,0.5,0.2,0.7,0.4c0.1,0.1,0.2,0.3,0.2,0.5C42.2,43.2,42.1,43.4,41.9,43.5L41.9,43.5z"/>
<path class="st0" d="M25,34.5c-4,0-7.2,3.2-7.2,7.2s3.2,7.2,7.2,7.2s7.2-3.2,7.2-7.2l0,0C32.2,37.8,29,34.5,25,34.5z M25,47.5
	c-3.2,0-5.8-2.6-5.8-5.8s2.6-5.8,5.8-5.8s5.8,2.6,5.8,5.8S28.2,47.5,25,47.5z"/>
<path class="st0" d="M25.4,41.1L25.4,41.1v-1.7c0.4,0.1,0.9,0.2,1.2,0.5l0.6-0.8c-0.5-0.4-1.2-0.6-1.8-0.7V38h-0.6v0.4
	c-0.5,0-1,0.2-1.4,0.5s-0.5,0.8-0.5,1.2s0.1,0.9,0.4,1.2c0.4,0.3,0.9,0.5,1.4,0.7v1.7c-0.6-0.1-1.1-0.4-1.5-0.7l-0.6,0.7
	c0.6,0.5,1.4,0.9,2.2,0.9v0.7h0.6v-0.7c0.5,0,1-0.2,1.5-0.5c0.4-0.3,0.5-0.8,0.5-1.2s-0.2-0.9-0.5-1.2
	C26.4,41.4,25.9,41.2,25.4,41.1z M24.8,41c-0.3,0-0.5-0.2-0.6-0.4C24,40.5,24,40.4,24,40.2s0.1-0.4,0.2-0.5c0.2-0.2,0.4-0.2,0.7-0.2
	L24.8,41L24.8,41z M26,43.5c-0.2,0.2-0.4,0.2-0.6,0.2v-1.6c0.3,0,0.5,0.2,0.7,0.4c0.1,0.1,0.2,0.3,0.2,0.5
	C26.3,43.2,26.2,43.4,26,43.5z"/>
<path class="st0" d="M40.6,17.1l1.7,1.7c0.3,0.3,0.8,0.3,1.2,0l0,0c0.3-0.3,0.3-0.8,0-1.2l0,0l-0.2-0.3h3.2v15.2
	c-0.1,0.5,0.3,0.9,0.8,0.9s0.9-0.3,0.9-0.8c0-0.1,0-0.1,0-0.2v-16c0-0.4-0.3-0.8-0.8-0.9h-0.1h-4l0.2-0.3c0.3-0.3,0.3-0.8,0-1.2l0,0
	c-0.3-0.3-0.8-0.3-1.2,0l0,0l-1.7,1.7c0,0,0,0.1-0.1,0.1C40.3,16.3,40.4,16.8,40.6,17.1z"/>
<path class="st0" d="M2.7,33.4c0.4,0,0.8-0.3,0.9-0.8v-0.1V17.4h3.2l-0.2,0.3c-0.3,0.3-0.3,0.8,0,1.2l0,0c0.3,0.3,0.8,0.3,1.2,0l0,0
	l1.7-1.7c0.3-0.3,0.3-0.8,0.1-1.1c0,0,0-0.1-0.1-0.1l0,0l-1.7-1.7C7.5,14,7,14,6.6,14.3l0,0c-0.3,0.3-0.3,0.8,0,1.2l0,0l0.2,0.3h-4
	c-0.4,0-0.8,0.3-0.9,0.8v0.1v16C1.9,33,2.2,33.4,2.7,33.4z"/>
<path class="st1" d="M17.5,31.3L17.5,31.3c-0.3,0-0.5-0.3-0.5-0.6l0,0c0.2-2.5,1.1-4.9,2.5-6.9c0.1-0.2,0.4-0.3,0.6-0.2
	c2.6,0.9,5.5,0.9,8.1,0c0.3-0.1,0.6,0,0.7,0.3s0,0.6-0.3,0.7l0,0c-2.7,1-5.7,1-8.4,0.1c-1.2,1.8-1.9,3.9-2.1,6.1
	C18,31.1,17.8,31.3,17.5,31.3z"/>
<path class="st1" d="M30.8,31.3c-0.3,0-0.5-0.2-0.5-0.5c-0.2-2.3-0.9-4.5-2.2-6.5c-0.2-0.2-0.1-0.6,0.1-0.7c0.2-0.2,0.5-0.1,0.7,0.1
	l0,0c1.4,2.1,2.2,4.4,2.5,6.9C31.3,31,31.1,31.3,30.8,31.3L30.8,31.3z"/>
<path class="st1" d="M19.9,24.6c-0.2,0-0.4-0.1-0.5-0.3c-0.4-1-0.8-2.1-1.1-3.1c-0.1-0.3,0-0.6,0.3-0.7s0.6,0,0.7,0.3
	c0,0,0,0.1,0,0.2c0.3,1,0.6,2,1,3c0.1,0.3,0,0.6-0.3,0.7C20,24.6,20,24.6,19.9,24.6z"/>
<path class="st1" d="M28.4,24.6c-0.1,0-0.1,0-0.2,0c-0.3-0.1-0.4-0.4-0.3-0.7l0,0c0.2-0.6,0.4-1,0.6-1.5c0.1-0.3,0.4-0.4,0.7-0.3
	c0.3,0.1,0.4,0.4,0.3,0.7c-0.2,0.5-0.4,0.9-0.6,1.5C28.8,24.5,28.6,24.6,28.4,24.6z"/>
<path class="st1" d="M18.4,11.9L18.4,11.9c-2.9-0.3-7.9-1.1-7.9-3c0-2.6,8.9-3.3,13.6-3.3s13.6,0.7,13.6,3.3c0,1.9-4.9,2.7-7.9,3
	c-0.3,0-0.5-0.3-0.4-0.6c0-0.2,0.2-0.3,0.3-0.4c5.2-0.5,6.9-1.6,6.9-2c0-0.8-4.4-2.3-12.6-2.3S11.6,8.1,11.6,8.9
	c0,0.4,1.7,1.5,6.9,2c0.3,0.1,0.4,0.4,0.3,0.7C18.8,11.7,18.6,11.9,18.4,11.9L18.4,11.9z"/>
<path class="st1" d="M24.1,18.9c-1.3,0-2.6-0.5-3.5-1.5c-2-2-2.9-5.7-2.9-8.3c0-1.2,0.3-2.3,1-3.2c0.2-0.2,0.5-0.3,0.7-0.1
	c0.2,0.2,0.3,0.5,0.1,0.7l0,0c-0.5,0.8-0.8,1.7-0.8,2.6c0,2.5,0.9,5.8,2.6,7.5c0.7,0.8,1.7,1.2,2.8,1.2l0,0c4,0,5.4-6,5.4-8.7
	c0-0.9-0.3-1.9-0.8-2.6c-0.1-0.3,0-0.6,0.2-0.7s0.5-0.1,0.6,0.1c0.7,0.9,1,2.1,1,3.2C30.6,12.4,29,18.9,24.1,18.9L24.1,18.9z"/>
<path class="st1" d="M12.3,31.3c-0.3,0-0.5-0.2-0.5-0.5l0,0c-0.1-3.1,0.8-6.1,2.5-8.7c0.9-0.9,2.1-1.5,3.4-1.5
	c0.9,0,1.8-0.3,2.5-0.9c0.5-0.5,0.4-1.4,0.4-2.6c-0.1-0.3,0-0.6,0.3-0.7s0.6,0,0.7,0.3c0,0.1,0,0.2,0,0.3c0.1,1.2,0.2,2.5-0.7,3.4
	c-0.9,0.7-2,1.1-3.1,1.2c-1,0-2,0.4-2.7,1.1c-1.6,2.4-2.4,5.2-2.3,8.1C12.8,31.1,12.5,31.3,12.3,31.3z"/>
<path class="st1" d="M36,31.3c-0.3,0-0.5-0.2-0.5-0.5l0,0c0-1-0.1-2-0.2-2.9c0-0.3,0.1-0.5,0.4-0.6c0.3-0.1,0.5,0.1,0.6,0.4l0,0
	c0.2,1,0.3,2.1,0.2,3.1C36.5,31.1,36.3,31.3,36,31.3L36,31.3z M28.5,21.1c-0.1,0-0.2,0-0.2-0.1c-0.3-0.2-0.6-0.4-0.9-0.6
	c-0.9-0.8-0.8-2.1-0.7-3.4c0-0.3,0.3-0.5,0.5-0.5c0.3,0,0.5,0.2,0.5,0.5l0,0c-0.1,1.1-0.1,2.1,0.4,2.6c0.2,0.2,0.4,0.3,0.6,0.4
	c0.3,0.1,0.4,0.4,0.2,0.7l0,0C28.9,21,28.7,21.1,28.5,21.1z"/>
<path class="st1" d="M31.7,31.3H12.3c-0.3,0.1-0.6-0.1-0.6-0.4c-0.1-0.3,0.1-0.6,0.4-0.6c0.1,0,0.2,0,0.3,0h19.4
	c0.3-0.1,0.6,0.1,0.6,0.4c0.1,0.3-0.1,0.6-0.4,0.6C31.9,31.3,31.8,31.3,31.7,31.3z"/>
<path class="st1" d="M17.5,7L17.5,7C17.2,7,17,6.7,17,6.4c0,0,0,0,0-0.1c0.4-3,3.5-5.3,7.1-5.3s6.7,2.3,7.1,5.4
	c0.1,0.3,0,0.6-0.3,0.7s-0.6,0-0.7-0.3c0-0.1,0-0.2,0-0.3C29.9,4,27.3,2,24.1,2S18.4,4,18,6.5C18,6.8,17.8,7,17.5,7z"/>
<path class="st1" d="M35.2,23.2h-2.9c-1.4,0-2.6-1.2-2.6-2.6l0,0v-4.8c-0.1-0.3,0.1-0.6,0.4-0.6c0.3-0.1,0.6,0.1,0.6,0.4
	c0,0.1,0,0.2,0,0.3v4.8c0,0.9,0.7,1.6,1.6,1.6h2.9c0.9,0,1.6-0.7,1.6-1.6v-4.8c0-0.3,0.2-0.5,0.5-0.5s0.5,0.2,0.5,0.5l0,0v4.8
	C37.7,22,36.6,23.2,35.2,23.2z"/>
<path class="st1" d="M33.7,23.2c-0.3,0-0.5-0.2-0.5-0.5v-6.9c0-0.3,0.2-0.5,0.5-0.5s0.5,0.2,0.5,0.5l0,0v6.9
	C34.2,23,34,23.2,33.7,23.2L33.7,23.2z"/>
<path class="st1" d="M33,31.3c-0.3,0-0.5-0.2-0.5-0.5l0,0v-8.1c0.1-0.3,0.4-0.4,0.6-0.4c0.2,0,0.3,0.2,0.4,0.4v8.1
	C33.5,31.1,33.3,31.3,33,31.3z"/>
<path class="st1" d="M34.5,31.3c-0.3,0-0.5-0.2-0.5-0.5l0,0v-8.1c-0.1-0.3,0.1-0.6,0.4-0.6s0.6,0.1,0.6,0.4c0,0.1,0,0.2,0,0.3v8.1
	C34.9,31.1,34.7,31.3,34.5,31.3z"/>
</svg>
