<?xml version="1.0" encoding="utf-8"?>
<!-- Generator: Adobe Illustrator 24.1.2, SVG Export Plug-In . SVG Version: 6.00 Build 0)  -->
<svg version="1.1" id="Layer_1" xmlns="http://www.w3.org/2000/svg" xmlns:xlink="http://www.w3.org/1999/xlink" x="0px" y="0px"
	 viewBox="0 0 50 50" style="enable-background:new 0 0 50 50;" xml:space="preserve">
<style type="text/css">
	.st0{fill:#00332E;}
</style>
<g>
	<path class="st0" d="M44.3,7.3h-2.5c0,2.6-2.1,4.7-4.7,4.7c-2.6,0-4.7-2.1-4.7-4.7h-2.5c0,2.6-2.1,4.7-4.7,4.7s-4.7-2.1-4.7-4.7H18
		c0,2.6-2.1,4.7-4.7,4.7S8.6,9.9,8.6,7.3H5.7C5.7,9.9,3.6,12,1,12v2.5c2.5,0,4.7-1.3,6-3.2c1.3,1.9,3.5,3.2,6,3.2s4.7-1.3,6-3.2
		c1.3,1.9,3.5,3.2,6,3.2s4.7-1.3,6-3.2c1.3,1.9,3.5,3.2,6,3.2s4.7-1.3,6-3.2c1.3,1.9,3.5,3.2,6,3.2V12C46.4,12,44.3,9.9,44.3,7.3z"
		/>
	<path class="st0" d="M44.3,16.7h-2.5c0,2.6-2.1,4.7-4.7,4.7c-2.6,0-4.7-2.1-4.7-4.7h-2.5c0,2.6-2.1,4.7-4.7,4.7s-4.7-2.1-4.7-4.7
		H18c0,2.6-2.1,4.7-4.7,4.7s-4.7-2.1-4.7-4.7H5.7c0,2.6-2.1,4.7-4.7,4.7v2.5c2.5,0,4.7-1.3,6-3.2c1.3,1.9,3.5,3.2,6,3.2
		s4.7-1.3,6-3.2c1.3,1.9,3.5,3.2,6,3.2s4.7-1.3,6-3.2c1.3,1.9,3.5,3.2,6,3.2s4.7-1.3,6-3.2c1.3,1.9,3.5,3.2,6,3.2v-2.5
		C46.4,21.4,44.3,19.3,44.3,16.7z"/>
	<path class="st0" d="M44.3,26.1h-2.5c0,2.6-2.1,4.7-4.7,4.7c-2.6,0-4.7-2.1-4.7-4.7h-2.5c0,2.6-2.1,4.7-4.7,4.7s-4.7-2.1-4.7-4.7
		H18c0,2.6-2.1,4.7-4.7,4.7s-4.7-2.1-4.7-4.7H5.7c0,2.6-2.1,4.7-4.7,4.7v2.5c2.5,0,4.7-1.3,6-3.2c1.3,1.9,3.5,3.2,6,3.2
		s4.7-1.3,6-3.2c1.3,1.9,3.5,3.2,6,3.2s4.7-1.3,6-3.2c1.3,1.9,3.5,3.2,6,3.2s4.7-1.3,6-3.2c1.3,1.9,3.5,3.2,6,3.2v-2.5
		C46.4,30.8,44.3,28.7,44.3,26.1z"/>
	<path class="st0" d="M44.3,35.4h-2.5c0,2.6-2.1,4.7-4.7,4.7c-2.6,0-4.7-2.1-4.7-4.7h-2.5c0,2.6-2.1,4.7-4.7,4.7s-4.7-2.1-4.7-4.7
		H18c0,2.6-2.1,4.7-4.7,4.7S8.6,38,8.6,35.4H5.7c0,2.6-2.1,4.7-4.7,4.7v2.5c2.5,0,4.7-1.3,6-3.2c1.3,1.9,3.5,3.2,6,3.2
		s4.7-1.3,6-3.2c1.3,1.9,3.5,3.2,6,3.2s4.7-1.3,6-3.2c1.3,1.9,3.5,3.2,6,3.2s4.7-1.3,6-3.2c1.3,1.9,3.5,3.2,6,3.2v-2.5
		C46.4,40.2,44.3,38.1,44.3,35.4z"/>
</g>
</svg>
